<svg xmlns="http://www.w3.org/2000/svg" viewBox="0 0 128 128" fill="none" role="img" aria-labelledby="title desc">
  <title id="title">SIQ Agent Security</title>
  <desc id="desc">A blue shield with white SIQ lettering, representing the secure runtime for Agent Skills.</desc>
  <defs>
    <linearGradient id="shield" x1="29" y1="18" x2="101" y2="108" gradientUnits="userSpaceOnUse">
      <stop stop-color="#2563EB"/>
      <stop offset="1" stop-color="#12346B"/>
    </linearGradient>
  </defs>
  <path d="M64 8C79 18 93 22 108 25V61C108 87 91 105 64 120C37 105 20 87 20 61V25C35 22 49 18 64 8Z" fill="url(#shield)" stroke="#60A5FA" stroke-width="2" stroke-linejoin="round"/>
  <path d="M64 19C76 27 89 31 98 33V61C98 81 85 97 64 109C43 97 30 81 30 61V33C39 31 52 27 64 19Z" stroke="#BFDBFE" stroke-opacity=".4" stroke-width="1.5"/>
  <text x="64" y="69" fill="#FFFFFF" font-family="-apple-system, BlinkMacSystemFont, 'Segoe UI', Helvetica, Arial, sans-serif" font-size="25" font-weight="600" text-anchor="middle">SIQ</text>
</svg>
